<svg width="200" height="50" viewBox="0 0 200 50" fill="none" xmlns="http://www.w3.org/2000/svg">
<path d="M29.6046 21.1166C29.2776 20.3016 28.7437 19.5891 28.0569 19.0513C27.3701 18.5135 26.555 18.1697 25.6946 18.055C25.5514 18.0315 25.4083 18.0157 25.269 18H24.7268L24.4482 18.0314C23.3898 18.1421 22.3969 18.6027 21.6223 19.3424C20.9822 19.922 20.5049 20.6632 20.2391 21.4906C19.9732 22.3179 19.9282 23.202 20.1086 24.0527C20.3045 24.9799 20.6372 25.8719 21.0957 26.6984C22.0666 28.5107 23.2353 30.2065 24.5798 31.7541C24.6202 31.8286 24.6796 31.8906 24.7518 31.9339C24.824 31.9771 24.9063 32 24.9902 32C25.074 32 25.1563 31.9771 25.2285 31.9339C25.3007 31.8906 25.3601 31.8286 25.4005 31.7541C26.584 30.3879 27.6366 28.9105 28.544 27.342C29.0532 26.4777 29.4598 25.5554 29.7556 24.5943C30.1273 23.4555 30.0735 22.218 29.6046 21.1166ZM24.9824 25.6228C24.6503 25.6192 24.3221 25.5492 24.0167 25.4168C23.7113 25.2843 23.4347 25.092 23.2028 24.851C22.9708 24.6099 22.7881 24.3249 22.665 24.0121C22.5419 23.6993 22.481 23.365 22.4856 23.0283C22.4968 22.3553 22.7692 21.7141 23.244 21.2437C23.7187 20.7733 24.3574 20.5119 25.0212 20.5161C25.6892 20.5255 26.3265 20.8029 26.7931 21.2878C27.2597 21.7727 27.5176 22.4254 27.5104 23.1028C27.5043 23.7778 27.2349 24.4228 26.7613 24.8972C26.2877 25.3715 25.6481 25.6366 24.9824 25.6345V25.6228Z" fill="white"/>
<path d="M36.89 31V18.4H38.69V29.434H45.512V31H36.89ZM51.2885 31.108C48.4265 31.108 46.3205 29.074 46.3205 26.23C46.3205 23.386 48.4265 21.37 51.2885 21.37C54.1505 21.37 56.2385 23.386 56.2385 26.23C56.2385 29.074 54.1505 31.108 51.2885 31.108ZM51.2885 29.596C53.1245 29.596 54.4925 28.264 54.4925 26.23C54.4925 24.196 53.1245 22.882 51.2885 22.882C49.4525 22.882 48.0665 24.196 48.0665 26.23C48.0665 28.264 49.4525 29.596 51.2885 29.596ZM62.7862 31.108C59.8522 31.108 57.7462 29.074 57.7462 26.23C57.7462 23.386 59.8522 21.37 62.7862 21.37C64.4962 21.37 65.9182 22.072 66.6742 23.404L65.3602 24.25C64.7482 23.314 63.8122 22.882 62.7682 22.882C60.8962 22.882 59.4922 24.196 59.4922 26.23C59.4922 28.3 60.8962 29.596 62.7682 29.596C63.8122 29.596 64.7482 29.164 65.3602 28.228L66.6742 29.056C65.9182 30.388 64.4962 31.108 62.7862 31.108ZM72.3854 21.37C74.9954 21.37 76.4714 22.63 76.4714 25.24V31H74.8334V29.74C74.2574 30.604 73.1954 31.108 71.7014 31.108C69.5414 31.108 68.1734 29.956 68.1734 28.3C68.1734 26.77 69.1634 25.51 72.0074 25.51H74.7434V25.168C74.7434 23.71 73.8974 22.864 72.1874 22.864C71.0534 22.864 69.9014 23.26 69.1634 23.89L68.4434 22.594C69.4334 21.802 70.8554 21.37 72.3854 21.37ZM71.9894 29.776C73.2854 29.776 74.3114 29.182 74.7434 28.084V26.752H72.0794C70.3694 26.752 69.8834 27.418 69.8834 28.228C69.8834 29.182 70.6754 29.776 71.9894 29.776ZM84.4933 29.2L85.0333 30.442C84.5113 30.892 83.7193 31.108 82.9453 31.108C81.0193 31.108 79.9213 30.046 79.9213 28.12V22.882H78.3013V21.46H79.9213V19.372H81.6493V21.46H84.3853V22.882H81.6493V28.048C81.6493 29.074 82.1893 29.65 83.1433 29.65C83.6473 29.65 84.1333 29.488 84.4933 29.2ZM87.9864 19.624C87.3204 19.624 86.8164 19.138 86.8164 18.508C86.8164 17.878 87.3204 17.374 87.9864 17.374C88.6524 17.374 89.1564 17.86 89.1564 18.472C89.1564 19.12 88.6704 19.624 87.9864 19.624ZM87.1224 31V21.46H88.8504V31H87.1224ZM96.2357 31.108C93.3737 31.108 91.2677 29.074 91.2677 26.23C91.2677 23.386 93.3737 21.37 96.2357 21.37C99.0977 21.37 101.186 23.386 101.186 26.23C101.186 29.074 99.0977 31.108 96.2357 31.108ZM96.2357 29.596C98.0717 29.596 99.4397 28.264 99.4397 26.23C99.4397 24.196 98.0717 22.882 96.2357 22.882C94.3997 22.882 93.0137 24.196 93.0137 26.23C93.0137 28.264 94.3997 29.596 96.2357 29.596ZM108.67 21.37C110.992 21.37 112.63 22.702 112.63 25.51V31H110.902V25.708C110.902 23.836 109.966 22.918 108.328 22.918C106.492 22.918 105.304 24.016 105.304 26.086V31H103.576V21.46H105.232V22.9C105.934 21.928 107.158 21.37 108.67 21.37Z" fill="white"/>
<path d="M170 23.5322C170.036 23.3778 170.131 23.2386 170.268 23.1367C170.39 23.0524 170.541 23.0065 170.697 23.0065C170.853 23.0065 171.004 23.0524 171.127 23.1367C171.174 23.1709 171.22 23.2072 171.264 23.2455L174.91 26.4382C174.945 26.4738 174.985 26.5061 175.028 26.5344C175.042 26.5023 175.062 26.4722 175.086 26.4449C176.312 25.3672 177.539 24.2905 178.766 23.2147C178.859 23.1206 178.982 23.0531 179.119 23.021C179.256 22.9889 179.4 22.9937 179.534 23.0347C179.637 23.0666 179.73 23.1191 179.806 23.1882C179.881 23.2573 179.937 23.3409 179.969 23.4325C180.001 23.524 180.008 23.6208 179.99 23.7152C179.972 23.8096 179.928 23.8988 179.863 23.9758C179.831 24.0117 179.797 24.046 179.76 24.0788L175.533 27.7863C175.27 28.0172 174.943 28.0643 174.646 27.9113C174.574 27.8715 174.509 27.824 174.451 27.7699C173.077 26.5671 171.704 25.3643 170.332 24.1615C170.172 24.04 170.058 23.8791 170.003 23.6996L170 23.5322Z" fill="white"/>
<rect x="1" y="1" width="198" height="48" rx="9" stroke="white" stroke-width="2"/>
</svg>
