<svg width="102" height="22" viewBox="0 0 102 22" fill="none" xmlns="http://www.w3.org/2000/svg">
<path d="M33.266 17L33.248 8.648L29.108 15.56H28.064L23.924 8.756V17H21.692V4.4H23.618L28.622 12.752L33.536 4.4H35.462L35.48 17H33.266ZM47.7034 12.248C47.7034 12.404 47.6914 12.626 47.6674 12.914H40.1254C40.2574 13.622 40.5994 14.186 41.1514 14.606C41.7154 15.014 42.4114 15.218 43.2394 15.218C44.2954 15.218 45.1654 14.87 45.8494 14.174L47.0554 15.56C46.6234 16.076 46.0774 16.466 45.4174 16.73C44.7574 16.994 44.0134 17.126 43.1854 17.126C42.1294 17.126 41.1994 16.916 40.3954 16.496C39.5914 16.076 38.9674 15.494 38.5234 14.75C38.0914 13.994 37.8754 13.142 37.8754 12.194C37.8754 11.258 38.0854 10.418 38.5054 9.674C38.9374 8.918 39.5314 8.33 40.2874 7.91C41.0434 7.49 41.8954 7.28 42.8434 7.28C43.7794 7.28 44.6134 7.49 45.3454 7.91C46.0894 8.318 46.6654 8.9 47.0734 9.656C47.4934 10.4 47.7034 11.264 47.7034 12.248ZM42.8434 9.08C42.1234 9.08 41.5114 9.296 41.0074 9.728C40.5154 10.148 40.2154 10.712 40.1074 11.42H45.5614C45.4654 10.724 45.1714 10.16 44.6794 9.728C44.1874 9.296 43.5754 9.08 42.8434 9.08ZM52.8347 17.126C52.0547 17.126 51.2927 17.024 50.5487 16.82C49.8047 16.616 49.2107 16.358 48.7667 16.046L49.6307 14.336C50.0627 14.624 50.5787 14.858 51.1787 15.038C51.7907 15.206 52.3907 15.29 52.9787 15.29C54.3227 15.29 54.9947 14.936 54.9947 14.228C54.9947 13.892 54.8207 13.658 54.4727 13.526C54.1367 13.394 53.5907 13.268 52.8347 13.148C52.0427 13.028 51.3947 12.89 50.8907 12.734C50.3987 12.578 49.9667 12.308 49.5947 11.924C49.2347 11.528 49.0547 10.982 49.0547 10.286C49.0547 9.374 49.4327 8.648 50.1887 8.108C50.9567 7.556 51.9887 7.28 53.2847 7.28C53.9447 7.28 54.6047 7.358 55.2647 7.514C55.9247 7.658 56.4647 7.856 56.8847 8.108L56.0207 9.818C55.2047 9.338 54.2867 9.098 53.2667 9.098C52.6067 9.098 52.1027 9.2 51.7547 9.404C51.4187 9.596 51.2507 9.854 51.2507 10.178C51.2507 10.538 51.4307 10.796 51.7907 10.952C52.1627 11.096 52.7327 11.234 53.5007 11.366C54.2687 11.486 54.8987 11.624 55.3907 11.78C55.8827 11.936 56.3027 12.2 56.6507 12.572C57.0107 12.944 57.1907 13.472 57.1907 14.156C57.1907 15.056 56.8007 15.776 56.0207 16.316C55.2407 16.856 54.1787 17.126 52.8347 17.126ZM62.0983 17.126C61.3183 17.126 60.5563 17.024 59.8123 16.82C59.0683 16.616 58.4743 16.358 58.0303 16.046L58.8943 14.336C59.3263 14.624 59.8423 14.858 60.4423 15.038C61.0543 15.206 61.6543 15.29 62.2423 15.29C63.5863 15.29 64.2583 14.936 64.2583 14.228C64.2583 13.892 64.0843 13.658 63.7363 13.526C63.4003 13.394 62.8543 13.268 62.0983 13.148C61.3063 13.028 60.6583 12.89 60.1543 12.734C59.6623 12.578 59.2303 12.308 58.8583 11.924C58.4983 11.528 58.3183 10.982 58.3183 10.286C58.3183 9.374 58.6963 8.648 59.4523 8.108C60.2203 7.556 61.2523 7.28 62.5483 7.28C63.2083 7.28 63.8683 7.358 64.5283 7.514C65.1883 7.658 65.7283 7.856 66.1483 8.108L65.2843 9.818C64.4683 9.338 63.5503 9.098 62.5303 9.098C61.8703 9.098 61.3663 9.2 61.0183 9.404C60.6823 9.596 60.5143 9.854 60.5143 10.178C60.5143 10.538 60.6943 10.796 61.0543 10.952C61.4263 11.096 61.9963 11.234 62.7643 11.366C63.5323 11.486 64.1623 11.624 64.6543 11.78C65.1463 11.936 65.5663 12.2 65.9143 12.572C66.2743 12.944 66.4543 13.472 66.4543 14.156C66.4543 15.056 66.0643 15.776 65.2843 16.316C64.5043 16.856 63.4423 17.126 62.0983 17.126ZM72.064 7.28C73.48 7.28 74.56 7.622 75.304 8.306C76.06 8.978 76.438 9.998 76.438 11.366V17H74.314V15.83C74.038 16.25 73.642 16.574 73.126 16.802C72.622 17.018 72.01 17.126 71.29 17.126C70.57 17.126 69.94 17.006 69.4 16.766C68.86 16.514 68.44 16.172 68.14 15.74C67.852 15.296 67.708 14.798 67.708 14.246C67.708 13.382 68.026 12.692 68.662 12.176C69.31 11.648 70.324 11.384 71.704 11.384H74.188V11.24C74.188 10.568 73.984 10.052 73.576 9.692C73.18 9.332 72.586 9.152 71.794 9.152C71.254 9.152 70.72 9.236 70.192 9.404C69.676 9.572 69.238 9.806 68.878 10.106L67.996 8.468C68.5 8.084 69.106 7.79 69.814 7.586C70.522 7.382 71.272 7.28 72.064 7.28ZM71.758 15.488C72.322 15.488 72.82 15.362 73.252 15.11C73.696 14.846 74.008 14.474 74.188 13.994V12.878H71.866C70.57 12.878 69.922 13.304 69.922 14.156C69.922 14.564 70.084 14.888 70.408 15.128C70.732 15.368 71.182 15.488 71.758 15.488ZM88.9535 7.388V15.542C88.9535 18.926 87.2255 20.618 83.7695 20.618C82.8455 20.618 81.9695 20.498 81.1415 20.258C80.3135 20.03 79.6295 19.694 79.0895 19.25L80.0975 17.558C80.5175 17.906 81.0455 18.182 81.6815 18.386C82.3295 18.602 82.9835 18.71 83.6435 18.71C84.6995 18.71 85.4735 18.47 85.9655 17.99C86.4575 17.51 86.7035 16.778 86.7035 15.794V15.29C86.3195 15.71 85.8515 16.028 85.2995 16.244C84.7475 16.46 84.1415 16.568 83.4815 16.568C82.5695 16.568 81.7415 16.376 80.9975 15.992C80.2655 15.596 79.6835 15.044 79.2515 14.336C78.8315 13.628 78.6215 12.818 78.6215 11.906C78.6215 10.994 78.8315 10.19 79.2515 9.494C79.6835 8.786 80.2655 8.24 80.9975 7.856C81.7415 7.472 82.5695 7.28 83.4815 7.28C84.1775 7.28 84.8075 7.394 85.3715 7.622C85.9475 7.85 86.4275 8.198 86.8115 8.666V7.388H88.9535ZM83.8235 14.66C84.6755 14.66 85.3715 14.408 85.9115 13.904C86.4635 13.388 86.7395 12.722 86.7395 11.906C86.7395 11.102 86.4635 10.448 85.9115 9.944C85.3715 9.44 84.6755 9.188 83.8235 9.188C82.9595 9.188 82.2515 9.44 81.6995 9.944C81.1595 10.448 80.8895 11.102 80.8895 11.906C80.8895 12.722 81.1595 13.388 81.6995 13.904C82.2515 14.408 82.9595 14.66 83.8235 14.66ZM100.948 12.248C100.948 12.404 100.936 12.626 100.912 12.914H93.3695C93.5015 13.622 93.8435 14.186 94.3955 14.606C94.9595 15.014 95.6555 15.218 96.4835 15.218C97.5395 15.218 98.4095 14.87 99.0935 14.174L100.3 15.56C99.8675 16.076 99.3215 16.466 98.6615 16.73C98.0015 16.994 97.2575 17.126 96.4295 17.126C95.3735 17.126 94.4435 16.916 93.6395 16.496C92.8355 16.076 92.2115 15.494 91.7675 14.75C91.3355 13.994 91.1195 13.142 91.1195 12.194C91.1195 11.258 91.3295 10.418 91.7495 9.674C92.1815 8.918 92.7755 8.33 93.5315 7.91C94.2875 7.49 95.1395 7.28 96.0875 7.28C97.0235 7.28 97.8575 7.49 98.5895 7.91C99.3335 8.318 99.9095 8.9 100.318 9.656C100.738 10.4 100.948 11.264 100.948 12.248ZM96.0875 9.08C95.3675 9.08 94.7555 9.296 94.2515 9.728C93.7595 10.148 93.4595 10.712 93.3515 11.42H98.8055C98.7095 10.724 98.4155 10.16 97.9235 9.728C97.4315 9.296 96.8195 9.08 96.0875 9.08Z" fill="#C6960C"/>
<path d="M0 10.8998V10.2006C0.00681846 10.1567 0.00681846 10.112 0 10.0681C0.0555587 9.44481 0.210795 8.83441 0.459819 8.25998C1.15021 6.70193 2.40252 5.45873 3.96895 4.77638C5.60549 4.00476 7.45419 3.80107 9.22046 4.19778C10.978 4.53136 12.5576 5.48061 13.6734 6.87375C14.4806 7.85243 14.9438 9.0675 14.9923 10.3332C15.0327 11.1144 14.913 11.8956 14.6405 12.6292C14.368 13.3628 13.9484 14.0335 13.4073 14.6003C12.6904 15.3912 11.8174 16.0263 10.843 16.466C9.86868 16.9057 8.81381 17.1404 7.74425 17.1557C6.73346 17.1988 5.72363 17.0516 4.76761 16.7218C4.7094 16.6984 4.64429 16.6984 4.58608 16.7218C4.38037 16.8665 4.19888 17.0352 3.99317 17.1799C3.20222 17.7094 2.27185 17.9945 1.3189 17.9995C1.2146 18.0044 1.11215 17.9718 1.02998 17.9076C0.947802 17.8434 0.891377 17.752 0.871189 17.65C0.856328 17.5614 0.866674 17.4705 0.900879 17.3875C0.935084 17.3044 0.991832 17.2325 1.06484 17.1799C1.34742 16.8716 1.55374 16.5017 1.66719 16.0999C1.78065 15.698 1.79815 15.2753 1.7183 14.8655C1.69683 14.7867 1.65985 14.7129 1.60944 14.6485C0.745003 13.7081 0.191565 12.5256 0.0242243 11.2614C0.0363247 11.177 0.0242007 11.0444 0 10.8998ZM2.71047 10.5864C2.70395 10.9328 2.83508 11.2678 3.07531 11.5184C3.31553 11.769 3.64547 11.9149 3.99317 11.9243C4.34325 11.9277 4.68079 11.7948 4.93393 11.5539C5.18707 11.313 5.33581 10.9831 5.3484 10.6346C5.35161 10.461 5.32018 10.2886 5.25609 10.1271C5.192 9.96574 5.09651 9.81859 4.975 9.69418C4.85348 9.56977 4.70848 9.4706 4.54826 9.40236C4.38805 9.33412 4.21571 9.29816 4.04147 9.2966C3.69373 9.29336 3.35885 9.42707 3.10958 9.66861C2.8603 9.91016 2.71683 10.24 2.71047 10.5864ZM7.5506 11.9243C7.8986 11.9246 8.23314 11.7902 8.48368 11.5496C8.73422 11.3091 8.88118 10.981 8.89372 10.6346C8.89693 10.462 8.86607 10.2905 8.80273 10.1299C8.7394 9.96927 8.64483 9.82266 8.5246 9.69841C8.40436 9.57416 8.26082 9.47472 8.102 9.40578C7.94318 9.33684 7.77227 9.29974 7.59905 9.2966C7.42584 9.29341 7.25366 9.32422 7.09241 9.38731C6.93116 9.45041 6.78405 9.54454 6.65933 9.66431C6.5346 9.78408 6.43474 9.92715 6.36553 10.0854C6.29632 10.2436 6.25908 10.4138 6.25593 10.5864C6.25244 10.9299 6.38288 11.2614 6.61989 11.511C6.85689 11.7606 7.18185 11.9087 7.52638 11.9243H7.5506ZM11.0961 9.2966C10.7493 9.29968 10.4174 9.43747 10.1711 9.68061C9.92478 9.92374 9.78346 10.253 9.77717 10.5984C9.77711 10.9459 9.914 11.2796 10.1584 11.5276C10.4028 11.7756 10.7352 11.918 11.084 11.9243C11.4349 11.9244 11.7716 11.7863 12.0209 11.5403C12.2701 11.2942 12.4118 10.96 12.415 10.6105C12.4086 10.2598 12.2644 9.92567 12.0132 9.67994C11.762 9.43421 11.4239 9.29654 11.0718 9.2966H11.0961Z" fill="#C6960C"/>
</svg>
